<?xml version="1.0" encoding="us-ascii" standalone="no"?><svg xmlns="http://www.w3.org/2000/svg" xmlns:xlink="http://www.w3.org/1999/xlink" contentStyleType="text/css" height="669px" preserveAspectRatio="none" style="width:790px;height:669px;background:#FFFFFF;" version="1.1" viewBox="0 0 790 669" width="790px" zoomAndPan="magnify"><defs/><g><rect fill="#FFFFFF" height="457.9023" style="stroke:#181818;stroke-width:1.0;" width="10" x="419" y="112.7988"/><rect fill="#FFFFFF" height="369.9707" style="stroke:#181818;stroke-width:1.0;" width="10" x="424" y="171.4199"/><rect fill="#FFFFFF" height="40.3105" style="stroke:#181818;stroke-width:1.0;" width="10" x="429" y="464.7695"/><rect fill="#FFFFFF" height="399.2813" style="stroke:#181818;stroke-width:1.0;" width="10" x="725" y="142.1094"/><rect fill="none" height="242.0391" style="stroke:#000000;stroke-width:1.5;" width="439" x="345.5" y="186.4199"/><rect fill="none" height="210.7285" style="stroke:#000000;stroke-width:1.5;" width="419" x="355.5" y="210.7305"/><rect fill="none" height="179.418" style="stroke:#000000;stroke-width:1.5;" width="399" x="365.5" y="235.041"/><line style="stroke:#181818;stroke-width:0.5;stroke-dasharray:5.0,5.0;" x1="28" x2="28" y1="81.4883" y2="588.7012"/><line style="stroke:#181818;stroke-width:0.5;stroke-dasharray:5.0,5.0;" x1="423.5" x2="423.5" y1="81.4883" y2="588.7012"/><line style="stroke:#181818;stroke-width:0.5;stroke-dasharray:5.0,5.0;" x1="729.5" x2="729.5" y1="81.4883" y2="588.7012"/><text fill="#000000" font-family="sans-serif" font-size="14" lengthAdjust="spacing" textLength="40" x="5" y="78.5352">Caller</text><ellipse cx="28" cy="13.5" fill="#E2E2F0" rx="8" ry="8" style="stroke:#181818;stroke-width:0.5;"/><path d="M28,21.5 L28,48.5 M15,29.5 L41,29.5 M28,48.5 L15,63.5 M28,48.5 L41,63.5 " fill="none" style="stroke:#181818;stroke-width:0.5;"/><text fill="#000000" font-family="sans-serif" font-size="14" lengthAdjust="spacing" textLength="40" x="5" y="601.2363">Caller</text><ellipse cx="28" cy="612.6895" fill="#E2E2F0" rx="8" ry="8" style="stroke:#181818;stroke-width:0.5;"/><path d="M28,620.6895 L28,647.6895 M15,628.6895 L41,628.6895 M28,647.6895 L15,662.6895 M28,647.6895 L41,662.6895 " fill="none" style="stroke:#181818;stroke-width:0.5;"/><rect fill="#E2E2F0" height="30.4883" rx="2.5" ry="2.5" style="stroke:#181818;stroke-width:0.5;" width="97" x="375.5" y="50"/><text fill="#000000" font-family="sans-serif" font-size="14" lengthAdjust="spacing" textLength="83" x="382.5" y="70.5352">BatchRouter</text><rect fill="#E2E2F0" height="30.4883" rx="2.5" ry="2.5" style="stroke:#181818;stroke-width:0.5;" width="97" x="375.5" y="587.7012"/><text fill="#000000" font-family="sans-serif" font-size="14" lengthAdjust="spacing" textLength="83" x="382.5" y="608.2363">BatchRouter</text><rect fill="#E2E2F0" height="30.4883" rx="2.5" ry="2.5" style="stroke:#181818;stroke-width:0.5;" width="49" x="705.5" y="50"/><text fill="#000000" font-family="sans-serif" font-size="14" lengthAdjust="spacing" textLength="35" x="712.5" y="70.5352">Vault</text><rect fill="#E2E2F0" height="30.4883" rx="2.5" ry="2.5" style="stroke:#181818;stroke-width:0.5;" width="49" x="705.5" y="587.7012"/><text fill="#000000" font-family="sans-serif" font-size="14" lengthAdjust="spacing" textLength="35" x="712.5" y="608.2363">Vault</text><rect fill="#FFFFFF" height="457.9023" style="stroke:#181818;stroke-width:1.0;" width="10" x="419" y="112.7988"/><rect fill="#FFFFFF" height="369.9707" style="stroke:#181818;stroke-width:1.0;" width="10" x="424" y="171.4199"/><rect fill="#FFFFFF" height="40.3105" style="stroke:#181818;stroke-width:1.0;" width="10" x="429" y="464.7695"/><rect fill="#FFFFFF" height="399.2813" style="stroke:#181818;stroke-width:1.0;" width="10" x="725" y="142.1094"/><polygon fill="#181818" points="407,108.7988,417,112.7988,407,116.7988,411,112.7988" style="stroke:#181818;stroke-width:1.0;"/><line style="stroke:#181818;stroke-width:1.0;" x1="28" x2="413" y1="112.7988" y2="112.7988"/><text fill="#000000" font-family="sans-serif" font-size="13" lengthAdjust="spacing" textLength="204" x="35" y="108.0566">swapExactIn() or swapExactOut()</text><polygon fill="#181818" points="713,138.1094,723,142.1094,713,146.1094,717,142.1094" style="stroke:#181818;stroke-width:1.0;"/><line style="stroke:#181818;stroke-width:1.0;" x1="429" x2="719" y1="142.1094" y2="142.1094"/><text fill="#000000" font-family="sans-serif" font-size="13" lengthAdjust="spacing" textLength="51" x="436" y="137.3672">unlock()</text><polygon fill="#181818" points="445,167.4199,435,171.4199,445,175.4199,441,171.4199" style="stroke:#181818;stroke-width:1.0;"/><line style="stroke:#181818;stroke-width:1.0;" x1="439" x2="724" y1="171.4199" y2="171.4199"/><text fill="#000000" font-family="sans-serif" font-size="13" lengthAdjust="spacing" textLength="272" x="451" y="166.6777">swapExactInHook() or swapExactOutHook()</text><path d="M345.5,186.4199 L419.5,186.4199 L419.5,193.7305 L409.5,203.7305 L345.5,203.7305 L345.5,186.4199 " fill="#EEEEEE" style="stroke:#000000;stroke-width:1.5;"/><rect fill="none" height="242.0391" style="stroke:#000000;stroke-width:1.5;" width="439" x="345.5" y="186.4199"/><text fill="#000000" font-family="sans-serif" font-size="13" font-weight="bold" lengthAdjust="spacing" textLength="29" x="360.5" y="199.9883">loop</text><text fill="#000000" font-family="sans-serif" font-size="11" font-weight="bold" lengthAdjust="spacing" textLength="82" x="434.5" y="199.0547">[for each path]</text><path d="M355.5,210.7305 L429.5,210.7305 L429.5,218.041 L419.5,228.041 L355.5,228.041 L355.5,210.7305 " fill="#EEEEEE" style="stroke:#000000;stroke-width:1.5;"/><rect fill="none" height="210.7285" style="stroke:#000000;stroke-width:1.5;" width="419" x="355.5" y="210.7305"/><text fill="#000000" font-family="sans-serif" font-size="13" font-weight="bold" lengthAdjust="spacing" textLength="29" x="370.5" y="224.2988">loop</text><text fill="#000000" font-family="sans-serif" font-size="11" font-weight="bold" lengthAdjust="spacing" textLength="124" x="444.5" y="223.3652">[for each step in path]</text><path d="M365.5,235.041 L427.5,235.041 L427.5,242.3516 L417.5,252.3516 L365.5,252.3516 L365.5,235.041 " fill="#EEEEEE" style="stroke:#000000;stroke-width:1.5;"/><rect fill="none" height="179.418" style="stroke:#000000;stroke-width:1.5;" width="399" x="365.5" y="235.041"/><text fill="#000000" font-family="sans-serif" font-size="13" font-weight="bold" lengthAdjust="spacing" textLength="17" x="380.5" y="248.6094">alt</text><text fill="#000000" font-family="sans-serif" font-size="11" font-weight="bold" lengthAdjust="spacing" textLength="84" x="442.5" y="247.6758">[step is buffer]</text><polygon fill="#181818" points="713,269.6621,723,273.6621,713,277.6621,717,273.6621" style="stroke:#181818;stroke-width:1.0;"/><line style="stroke:#181818;stroke-width:1.0;" x1="434" x2="719" y1="273.6621" y2="273.6621"/><text fill="#000000" font-family="sans-serif" font-size="13" lengthAdjust="spacing" textLength="189" x="441" y="268.9199">erc4626BufferWrapOrUnwrap()</text><line style="stroke:#000000;stroke-width:1.0;stroke-dasharray:2.0,2.0;" x1="365.5" x2="764.5" y1="282.6621" y2="282.6621"/><text fill="#000000" font-family="sans-serif" font-size="11" font-weight="bold" lengthAdjust="spacing" textLength="121" x="370.5" y="293.2969">[step token in is BPT]</text><polygon fill="#181818" points="713,313.9277,723,317.9277,713,321.9277,717,317.9277" style="stroke:#181818;stroke-width:1.0;"/><line style="stroke:#181818;stroke-width:1.0;" x1="434" x2="719" y1="317.9277" y2="317.9277"/><text fill="#000000" font-family="sans-serif" font-size="13" lengthAdjust="spacing" textLength="109" x="441" y="313.1855">removeLiquidity()</text><line style="stroke:#000000;stroke-width:1.0;stroke-dasharray:2.0,2.0;" x1="365.5" x2="764.5" y1="326.9277" y2="326.9277"/><text fill="#000000" font-family="sans-serif" font-size="11" font-weight="bold" lengthAdjust="spacing" textLength="128" x="370.5" y="337.5625">[step token out is BPT]</text><polygon fill="#181818" points="713,358.1934,723,362.1934,713,366.1934,717,362.1934" style="stroke:#181818;stroke-width:1.0;"/><line style="stroke:#181818;stroke-width:1.0;" x1="434" x2="719" y1="362.1934" y2="362.1934"/><text fill="#000000" font-family="sans-serif" font-size="13" lengthAdjust="spacing" textLength="86" x="441" y="357.4512">addLiquidity()</text><line style="stroke:#000000;stroke-width:1.0;stroke-dasharray:2.0,2.0;" x1="365.5" x2="764.5" y1="371.1934" y2="371.1934"/><text fill="#000000" font-family="sans-serif" font-size="11" font-weight="bold" lengthAdjust="spacing" textLength="80" x="370.5" y="381.8281">[regular swap]</text><polygon fill="#181818" points="713,402.459,723,406.459,713,410.459,717,406.459" style="stroke:#181818;stroke-width:1.0;"/><line style="stroke:#181818;stroke-width:1.0;" x1="434" x2="719" y1="406.459" y2="406.459"/><text fill="#000000" font-family="sans-serif" font-size="13" lengthAdjust="spacing" textLength="40" x="441" y="401.7168">swap()</text><line style="stroke:#181818;stroke-width:1.0;" x1="434" x2="481" y1="451.7695" y2="451.7695"/><line style="stroke:#181818;stroke-width:1.0;" x1="481" x2="481" y1="451.7695" y2="464.7695"/><line style="stroke:#181818;stroke-width:1.0;" x1="440" x2="481" y1="464.7695" y2="464.7695"/><polygon fill="#181818" points="450,460.7695,440,464.7695,450,468.7695,446,464.7695" style="stroke:#181818;stroke-width:1.0;"/><text fill="#000000" font-family="sans-serif" font-size="13" lengthAdjust="spacing" textLength="84" x="446" y="447.0273">_settlePaths()</text><line style="stroke:#181818;stroke-width:1.0;" x1="439" x2="481" y1="504.0801" y2="504.0801"/><line style="stroke:#181818;stroke-width:1.0;" x1="481" x2="481" y1="504.0801" y2="517.0801"/><line style="stroke:#181818;stroke-width:1.0;" x1="434" x2="481" y1="517.0801" y2="517.0801"/><polygon fill="#181818" points="444,513.0801,434,517.0801,444,521.0801,440,517.0801" style="stroke:#181818;stroke-width:1.0;"/><text fill="#000000" font-family="sans-serif" font-size="13" lengthAdjust="spacing" textLength="221" x="446" y="499.3379">_takeTokenIn() or _sendTokenOut()</text><polygon fill="#181818" points="718,537.3906,728,541.3906,718,545.3906,722,541.3906" style="stroke:#181818;stroke-width:1.0;"/><line style="stroke:#181818;stroke-width:1.0;stroke-dasharray:2.0,2.0;" x1="429" x2="724" y1="541.3906" y2="541.3906"/><text fill="#000000" font-family="sans-serif" font-size="13" lengthAdjust="spacing" textLength="38" x="436" y="536.6484">return</text><polygon fill="#181818" points="39,566.7012,29,570.7012,39,574.7012,35,570.7012" style="stroke:#181818;stroke-width:1.0;"/><line style="stroke:#181818;stroke-width:1.0;stroke-dasharray:2.0,2.0;" x1="33" x2="423" y1="570.7012" y2="570.7012"/><text fill="#000000" font-family="sans-serif" font-size="13" lengthAdjust="spacing" textLength="367" x="45" y="565.959">return pathAmountsOut/In, tokensOut/In, amountsOut/In</text><!--SRC=[ZPDHIyCm4CVVyodkSGD54Dd37WGdWWDXGwO-ojbUrz0iYSbbqszlsgoZcsjPeGsvtFztbxkhhwIsw703liJSxAHUGu7Aan2OiN7mY4gH4z67PIOjQeOPSbQ-ci0dzdSCYeL82hY-xpfEmU_GFlr4w5oFnX391yCYy6XSXvDRP3h2Yywc9ZOXfX2qCbdL5UrZDyjGw6TZgl_XaxKd1MMCXI8g2BCIB78f08wDdic2rEqX0COiaj73LoYAo87cENyVSjdTv7OoQpm_7Dg5UzExkCQaQXN5XYGUcufq7Ig2PylL8DNHncpfHNu7cKl-xM55rIKmpFEp94Vhe32LSn1GExH2dOlqhT_J7X-rxjCJiw9bBAplwz2Wdh6YLNtHTkmYKUUD9SrTJXTCNhUe79pkKtNC-uaynQI_e-Kq4_EmCK6pZ-dSpFLLQijXXzt3lh1_]--></g></svg>